Coordinates
version=1
nRows=29
nColumns=24
inDegrees=yes

Units are S.I. units (second, meters, Newtons, ...)
Angles are in degrees.

endheader
time	pelvis_tilt	pelvis_list	pelvis_rotation	pelvis_tx	pelvis_ty	pelvis_tz	hip_flexion_r	hip_adduction_r	hip_rotation_r	knee_angle_r	ankle_angle_r	subtalar_angle_r	mtp_angle_r	hip_flexion_l	hip_adduction_l	hip_rotation_l	knee_angle_l	ankle_angle_l	subtalar_angle_l	mtp_angle_l	lumbar_extension	lumbar_bending	lumbar_rotation
      1.15450000	     -0.86687119	     -0.24897104	     -3.31224392	      0.09789560	      1.01571372	      0.34048824	     19.25897198	     -1.74287230	     -5.71853267	    -61.04863172	      6.99498378	     -3.19473779	      4.26588059	     11.54052215	     -0.44821143	    -10.19073542	    -13.11470746	      0.48931613	    -10.03486972	      3.24966557	    -11.87226807	     -2.68437184	      4.87947884
      1.15866667	     -0.86219719	     -0.35850280	     -3.17948721	      0.10300647	      1.01654905	      0.34005458	     19.69694548	     -1.64574541	     -5.94210633	    -60.29175962	      7.17200316	     -3.81065257	      4.08132023	     11.10549269	     -0.47440673	     -9.98931058	    -12.87881840	      0.60127104	    -10.06576578	      3.17647543	    -11.92903491	     -2.47112975	      4.68139673
      1.16283333	     -0.85190133	     -0.49351948	     -3.03069696	      0.10816409	      1.01741608	      0.33958640	     20.08520317	     -1.53219214	     -6.19968933	    -59.42924934	      7.30242920	     -4.44161941	      3.86281482	     10.65952143	     -0.52651747	     -9.77723565	    -12.63751798	      0.70999136	    -10.09800300	      3.09404652	    -11.98147477	     -2.23738982	      4.47019418
      1.16700000	     -0.67124807	     -0.64081276	     -2.76283187	      0.11333408	      1.01856715	      0.33877069	     20.22331049	     -1.49164311	     -6.61389118	    -58.45274950	      7.47772828	     -5.01040822	      3.03693946	     10.02463362	     -0.54326698	     -9.41081842	    -12.35638697	      0.81177179	    -10.16314705	      2.78456471	    -12.24973400	     -1.97217298	      4.04559693
      1.17116667	     -0.68438661	     -0.82252324	     -2.62745861	      0.11852111	      1.01937656	      0.33835889	     20.57457442	     -1.32145023	     -6.89006158	    -57.41990267	      7.55882913	     -5.70467881	      2.51323315	      9.60641802	     -0.66635773	     -9.25665900	    -12.13048391	      0.93816956	    -10.12251721	      2.59905261	    -12.26427264	     -1.67049190	      3.91723707
      1.17533333	     -0.55901128	     -0.93125191	     -2.45533199	      0.12368694	      1.02039004	      0.33775475	     20.75249682	     -1.27739079	     -7.21426105	    -56.32692376	      7.61460813	     -6.40615347	      1.53455313	      9.00348060	     -0.67116523	     -8.98673937	    -11.79998822	      0.97128783	    -10.24728213	      2.26979165	    -12.45610989	     -1.46696243	      3.59784658
      1.17950000	     -0.59130992	     -1.10325451	     -2.32296934	      0.12888598	      1.02110614	      0.33734140	     21.07448447	     -1.12377181	     -7.50777841	    -55.15923764	      7.66622730	     -7.11798657	      1.10900940	      8.60194252	     -0.78733749	     -8.83573247	    -11.56379339	      1.10345776	    -10.23391722	      2.13858974	    -12.44256452	     -1.17965055	      3.49898749
      1.18366667	     -0.51950991	     -1.25394571	     -2.15770309	      0.13409965	      1.02199535	      0.33679169	     21.24429089	     -1.02636367	     -7.85183048	    -53.90719451	      7.68686306	     -7.83002074	      0.63866467	      8.06406744	     -0.85718453	     -8.61256681	    -11.26022713	      1.16433545	    -10.31562264	      2.00476792	    -12.55892061	     -0.91200358	      3.25425222
      1.18783333	     -0.46040545	     -1.39496556	     -1.99034027	      0.13930809	      1.02281773	      0.33624099	     21.40588943	     -0.94338365	     -8.20880312	    -52.59864720	      7.69894141	     -8.53802063	      0.14862889	      7.54211943	     -0.92049750	     -8.39309698	    -10.95793724	      1.23366789	    -10.38945591	      1.87728651	    -12.65538000	     -0.65240290	      3.02516644
      1.19200000	     -0.54027732	     -1.43743083	     -1.95000742	      0.14447396	      1.02329189	      0.33603568	     21.75592405	     -0.89435938	     -8.40573559	    -51.32325580	      7.76200277	     -9.27976316	      0.01683091	      7.16038057	     -0.91175265	     -8.31245284	    -10.64589466	      1.21675464	    -10.52046082	      1.84496214	    -12.58080271	     -0.55675412	      2.94704434
      1.19616667	     -0.34316519	     -1.65918777	     -1.65749827	      0.14975189	      1.02435217	      0.33518579	     21.64813334	     -0.79514216	     -8.94485186	    -49.79167007	      7.69899487	     -9.91478673	     -0.50250026	      6.49627921	     -1.04206390	     -7.98091332	    -10.34457452	      1.36236885	    -10.51595578	      1.73441106	    -12.84298517	     -0.15493432	      2.56005005
      1.20033333	     -0.23663461	     -1.79243274	     -1.46522759	      0.15498372	      1.02515207	      0.33458126	     21.66586295	     -0.73618518	     -9.35756843	    -48.28117290	      7.68207164	    -10.56755885	     -1.11024233	      5.91623322	     -1.09798367	     -7.73810073	    -10.01921870	      1.40845417	    -10.62838404	      1.60856655	    -12.98900100	      0.10609589	      2.31196359
      1.20450000	     -0.18375179	     -1.90164420	     -1.29614367	      0.16021332	      1.02580213	      0.33408543	     21.72909011	     -0.68371161	     -9.74264581	    -46.73469860	      7.66683260	    -11.20636037	     -1.70733395	      5.39817597	     -1.14350661	     -7.52953927	     -9.70729443	      1.47251833	    -10.70796061	      1.49305481	    -13.07187743	      0.32763691	      2.07899975
      1.20866667	     -0.14130519	     -1.99990391	     -1.12846734	      0.16545426	      1.02639239	      0.33359741	     21.77824965	     -0.64181323	    -10.13393780	    -45.13565861	      7.65185033	    -11.80235864	     -2.31173446	      4.88885809	     -1.17996788	     -7.32585600	     -9.38867963	      1.51582767	    -10.80041880	      1.38221146	    -13.13973130	      0.54027130	      1.85052378
      1.21283333	     -0.05878764	     -2.10721317	     -0.97426507	      0.17074979	      1.02703346	      0.33313050	     21.74472075	     -0.58674282	    -10.52440402	    -43.45659104	      7.60855246	    -12.25419434	     -3.12198486	      4.31862060	     -1.22940747	     -7.14339432	     -9.04198056	      1.52942384	    -10.90969360	      1.24026042	    -13.24225194	      0.76777543	      1.57543106
      1.21700000	     -0.01043830	     -2.18109506	     -0.82446299	      0.17600830	      1.02753123	      0.33273010	     21.74091200	     -0.55453607	    -10.90289643	    -41.75827232	      7.58299909	    -12.74191231	     -3.99499655	      3.79720820	     -1.25210322	     -6.97081459	     -8.71839155	      1.56967915	    -10.98960862	      1.09201124	    -13.31001294	      0.94890333	      1.35663990
      1.22116667	     -0.02610391	     -2.20224803	     -0.69146717	      0.18119141	      1.02782128	      0.33242839	     21.81379200	     -0.56093130	    -11.24804271	    -40.06455635	      7.58324277	    -13.28421133	     -4.58401745	      3.36483432	     -1.22890275	     -6.81358882	     -8.43535213	      1.67081677	    -11.04148256	      0.99617534	    -13.31339361	      1.05093454	      1.20672486
      1.22533333	      0.00756944	     -2.24724701	     -0.57899087	      0.18647825	      1.02819882	      0.33213678	     21.78351551	     -0.53720889	    -11.59228371	    -38.27575984	      7.52169498	    -13.60415261	     -5.31029455	      2.84804594	     -1.23036876	     -6.68068754	     -8.10119450	      1.70427639	    -11.15280734	      0.87700354	    -13.35762261	      1.19245403	      0.98638895
      1.22950000	     -0.01618505	     -2.26183838	     -0.46784318	      0.19173909	      1.02840125	      0.33192478	     21.80851915	     -0.53256374	    -11.92280777	    -36.47483462	      7.48117446	    -13.94922434	     -6.04577448	      2.40942735	     -1.21043004	     -6.56261603	     -7.80059205	      1.76923741	    -11.19312062	      0.75593545	    -13.33786704	      1.28795665	      0.79742780
      1.23366667	     -0.19631506	     -2.18497504	     -0.48656128	      0.19695094	      1.02821748	      0.33205184	     22.04697565	     -0.55774894	    -12.07665990	    -34.73418736	      7.48126253	    -14.26059312	     -6.14828529	      2.13059269	     -1.10868600	     -6.56271609	     -7.50112554	      1.77830194	    -11.29471757	      0.73769999	    -13.13844581	      1.23292310	      0.78661086
      1.23783333	     -0.10317728	     -2.19482322	     -0.34867301	      0.20220731	      1.02852079	      0.33183408	     21.88606846	     -0.55832705	    -12.44221577	    -32.82206415	      7.36693083	    -14.51081560	     -6.58015270	      1.56954590	     -1.09001282	     -6.45309135	     -7.20825204	      1.89921385	    -11.25214878	      0.66643400	    -13.25708960	      1.32550675	      0.56693640
      1.24200000	     -0.29538163	     -2.09524209	     -0.38152900	      0.20744732	      1.02821274	      0.33203265	     22.09866712	     -0.59152034	    -12.57017343	    -31.01464182	      7.33212067	    -14.66479883	     -6.67886534	      1.30530945	     -0.96885358	     -6.47473415	     -6.92379309	      1.93817429	    -11.34664381	      0.64766571	    -13.04170376	      1.24816984	      0.54189690
      1.24616667	     -0.27361125	     -2.05116477	     -0.29519412	      0.21268516	      1.02825876	      0.33201735	     22.00432648	     -0.60860195	    -12.84924764	    -29.07872986	      7.18042289	    -14.82587694	     -7.06024872	      0.82719976	     -0.90669656	     -6.42073368	     -6.65612310	      2.08389187	    -11.28127018	      0.57609817	    -13.07852729	      1.25966440	      0.37352328
      1.25033333	     -0.47404790	     -1.91416068	     -0.34965302	      0.21791400	      1.02780906	      0.33233214	     22.20327671	     -0.66014431	    -12.93293492	    -27.23747016	      7.14004583	    -14.82517122	     -7.14008098	      0.57788985	     -0.75367071	     -6.47975439	     -6.38892228	      2.13342905	    -11.34304991	      0.55827164	    -12.85281452	      1.12732464	      0.35837724
      1.25450000	     -0.64526753	     -1.77549233	     -0.38733192	      0.22313463	      1.02735989	      0.33264933	     22.34876696	     -0.71228389	    -13.02483763	    -25.35770371	      7.01049777	    -14.82118845	     -7.22088749	      0.30709309	     -0.60243846	     -6.53764526	     -6.14170590	      2.23028967	    -11.34856910	      0.53945854	    -12.66212890	      0.99620078	      0.32877594
      1.25866667	     -0.73612347	     -1.66722856	     -0.39924403	      0.22836703	      1.02701055	      0.33299214	     22.36629048	     -0.72042014	    -13.10726399	    -23.41215129	      6.84767067	    -14.89378699	     -7.37817704	     -0.04637270	     -0.49203363	     -6.59100720	     -5.90414789	      2.38896138	    -11.24061497	      0.49798058	    -12.56312597	      0.90117236	      0.28552146
      1.26283333	     -0.85902571	     -1.49899907	     -0.47871300	      0.23357670	      1.02651535	      0.33348458	     22.44050154	     -0.76969574	    -13.10986427	    -21.50868290	      6.65860207	    -14.76459083	     -7.57717195	     -0.36357624	     -0.32099821	     -6.73592794	     -5.68077866	      2.54495819	    -11.13237805	      0.43239985	    -12.43894250	      0.71439933	      0.27999101
      1.26700000	     -1.07549747	     -1.28126884	     -0.57048568	      0.23878007	      1.02578104	      0.33399072	     22.63349829	     -0.87155250	    -13.08589684	    -19.66331258	      6.52982591	    -14.50445246	     -7.61745677	     -0.57509557	     -0.09179105	     -6.84978298	     -5.46363715	      2.65468474	    -11.13781050	      0.41606783	    -12.19585933	      0.47262330	      0.26941275
      1.27116667	     -1.29721406	     -1.08429477	     -0.67379412	      0.24400075	      1.02499359	      0.33462730	     22.80786832	     -0.92124354	    -12.98087074	    -17.78228030	      6.33230499	    -14.34350200	     -7.68723674	     -0.77211465	      0.10121431	     -7.00210928	     -5.27296282	      2.80733038	    -11.03107863	      0.37925290	    -11.94440179	      0.25609890	      0.30738222
